<svg width="18" height="12" viewBox="0 0 18 12" fill="none" xmlns="http://www.w3.org/2000/svg">
<path d="M6.3 6C8.037 6 9.45 4.65429 9.45 3C9.45 1.34571 8.037 0 6.3 0C4.563 0 3.15 1.34571 3.15 3C3.15 4.65429 4.563 6 6.3 6ZM6.3 1.71429C7.047 1.71429 7.65 2.28857 7.65 3C7.65 3.71143 7.047 4.28571 6.3 4.28571C5.553 4.28571 4.95 3.71143 4.95 3C4.95 2.28857 5.553 1.71429 6.3 1.71429ZM6.345 10.2857H2.493C3.384 9.85714 4.923 9.42857 6.3 9.42857C6.399 9.42857 6.507 9.43714 6.606 9.43714C6.912 8.81143 7.443 8.29714 8.082 7.88571C7.425 7.77429 6.804 7.71429 6.3 7.71429C4.194 7.71429 0 8.71714 0 10.7143V12H6.3V10.7143C6.3 10.5686 6.318 10.4229 6.345 10.2857ZM13.05 8.14286C11.394 8.14286 8.1 9.00857 8.1 10.7143V12H18V10.7143C18 9.00857 14.706 8.14286 13.05 8.14286ZM14.139 6.58286C14.823 6.21429 15.3 5.52 15.3 4.71429C15.3 3.53143 14.292 2.57143 13.05 2.57143C11.808 2.57143 10.8 3.53143 10.8 4.71429C10.8 5.52 11.277 6.21429 11.961 6.58286C12.285 6.75429 12.654 6.85714 13.05 6.85714C13.446 6.85714 13.815 6.75429 14.139 6.58286Z" fill="#4B4B4B"/>
</svg>
