<svg width="19" height="18" viewBox="0 0 19 18" fill="none" xmlns="http://www.w3.org/2000/svg">
<path d="M9.5 0C4.532 0 0.5 4.032 0.5 9C0.5 13.968 4.532 18 9.5 18C14.468 18 18.5 13.968 18.5 9C18.5 4.032 14.468 0 9.5 0ZM5.063 14.652C5.45 13.842 7.808 13.05 9.5 13.05C11.192 13.05 13.559 13.842 13.937 14.652C12.713 15.624 11.174 16.2 9.5 16.2C7.826 16.2 6.287 15.624 5.063 14.652ZM15.224 13.347C13.937 11.781 10.814 11.25 9.5 11.25C8.186 11.25 5.063 11.781 3.776 13.347C2.858 12.141 2.3 10.638 2.3 9C2.3 5.031 5.531 1.8 9.5 1.8C13.469 1.8 16.7 5.031 16.7 9C16.7 10.638 16.142 12.141 15.224 13.347ZM9.5 3.6C7.754 3.6 6.35 5.004 6.35 6.75C6.35 8.496 7.754 9.9 9.5 9.9C11.246 9.9 12.65 8.496 12.65 6.75C12.65 5.004 11.246 3.6 9.5 3.6ZM9.5 8.1C8.753 8.1 8.15 7.497 8.15 6.75C8.15 6.003 8.753 5.4 9.5 5.4C10.247 5.4 10.85 6.003 10.85 6.75C10.85 7.497 10.247 8.1 9.5 8.1Z" fill="#B7B7B7"/>
</svg>
